<mxfile host="app.diagrams.net" modified="2023-06-22T22:54:13.461Z" agent="Mozilla/5.0 (Windows NT 10.0; Win64; x64) AppleWebKit/537.36 (KHTML, like Gecko) Chrome/114.0.0.0 Safari/537.36" version="21.3.8" etag="Pi--J6a51wC0qI-M5AD5" type="github">
  <diagram name="PÃ¡gina-1" id="Rw9nKOrrEa1S-WS58yxJ">
    <mxGraphModel>
      <root>
        <mxCell id="0" />
        <mxCell id="1" parent="0" />
      </root>
    </mxGraphModel>
  </diagram>
</mxfile>
